<svg xmlns="http://www.w3.org/2000/svg" xmlns:xlink="http://www.w3.org/1999/xlink" width="500" zoomAndPan="magnify" viewBox="0 0 375 374.999991" height="500" preserveAspectRatio="xMidYMid meet" version="1.0"><defs><clipPath id="804035b398"><path d="M 137 251 L 290 251 L 290 318.023438 L 137 318.023438 Z M 137 251 " clip-rule="nonzero"/></clipPath><clipPath id="de646e62bc"><path d="M 82.78125 57.023438 L 290 57.023438 L 290 264 L 82.78125 264 Z M 82.78125 57.023438 " clip-rule="nonzero"/></clipPath></defs><path fill="#ffffff" d="M 254.03125 187.523438 C 254.03125 188.855469 253.964844 190.191406 253.832031 191.519531 C 253.703125 192.847656 253.507812 194.167969 253.246094 195.476562 C 252.984375 196.789062 252.660156 198.082031 252.273438 199.359375 C 251.886719 200.636719 251.4375 201.894531 250.925781 203.128906 C 250.414062 204.363281 249.84375 205.566406 249.214844 206.746094 C 248.585938 207.921875 247.898438 209.066406 247.160156 210.179688 C 246.417969 211.289062 245.621094 212.359375 244.773438 213.394531 C 243.925781 214.425781 243.03125 215.414062 242.085938 216.359375 C 241.144531 217.304688 240.15625 218.199219 239.121094 219.046875 C 238.089844 219.894531 237.019531 220.6875 235.910156 221.429688 C 234.800781 222.171875 233.65625 222.859375 232.476562 223.488281 C 231.300781 224.117188 230.09375 224.6875 228.859375 225.199219 C 227.625 225.710938 226.371094 226.160156 225.09375 226.546875 C 223.816406 226.933594 222.519531 227.257812 221.210938 227.519531 C 219.902344 227.78125 218.582031 227.976562 217.253906 228.105469 C 215.925781 228.238281 214.59375 228.304688 213.257812 228.304688 C 211.921875 228.304688 210.589844 228.238281 209.261719 228.105469 C 207.933594 227.976562 206.613281 227.78125 205.304688 227.519531 C 203.992188 227.257812 202.699219 226.933594 201.421875 226.546875 C 200.144531 226.160156 198.886719 225.710938 197.65625 225.199219 C 196.421875 224.6875 195.214844 224.117188 194.039062 223.488281 C 192.859375 222.859375 191.714844 222.171875 190.605469 221.429688 C 189.496094 220.6875 188.425781 219.894531 187.390625 219.046875 C 186.359375 218.199219 185.371094 217.304688 184.425781 216.359375 C 183.484375 215.414062 182.585938 214.425781 181.738281 213.394531 C 180.894531 212.359375 180.097656 211.289062 179.355469 210.179688 C 178.613281 209.066406 177.929688 207.921875 177.300781 206.746094 C 176.667969 205.566406 176.101562 204.363281 175.589844 203.128906 C 175.078125 201.894531 174.628906 200.636719 174.242188 199.359375 C 173.851562 198.082031 173.527344 196.789062 173.269531 195.476562 C 173.007812 194.167969 172.8125 192.847656 172.679688 191.519531 C 172.550781 190.191406 172.484375 188.855469 172.484375 187.523438 C 172.484375 186.1875 172.550781 184.855469 172.679688 183.523438 C 172.8125 182.195312 173.007812 180.875 173.269531 179.566406 C 173.527344 178.253906 173.851562 176.960938 174.242188 175.683594 C 174.628906 174.40625 175.078125 173.148438 175.589844 171.914062 C 176.101562 170.679688 176.667969 169.476562 177.300781 168.296875 C 177.929688 167.121094 178.613281 165.976562 179.355469 164.863281 C 180.097656 163.753906 180.894531 162.683594 181.738281 161.648438 C 182.585938 160.617188 183.484375 159.628906 184.425781 158.683594 C 185.371094 157.742188 186.359375 156.84375 187.390625 155.996094 C 188.425781 155.148438 189.496094 154.355469 190.605469 153.613281 C 191.714844 152.871094 192.859375 152.183594 194.039062 151.554688 C 195.214844 150.925781 196.421875 150.355469 197.65625 149.84375 C 198.886719 149.332031 200.144531 148.882812 201.421875 148.496094 C 202.699219 148.109375 203.992188 147.785156 205.304688 147.523438 C 206.613281 147.261719 207.933594 147.066406 209.261719 146.9375 C 210.589844 146.804688 211.921875 146.742188 213.257812 146.742188 C 214.59375 146.742188 215.925781 146.804688 217.253906 146.9375 C 218.582031 147.066406 219.902344 147.261719 221.210938 147.523438 C 222.519531 147.785156 223.816406 148.109375 225.09375 148.496094 C 226.371094 148.882812 227.625 149.332031 228.859375 149.84375 C 230.09375 150.355469 231.300781 150.925781 232.476562 151.554688 C 233.65625 152.183594 234.800781 152.871094 235.910156 153.613281 C 237.019531 154.355469 238.089844 155.148438 239.121094 155.996094 C 240.15625 156.84375 241.144531 157.742188 242.085938 158.683594 C 243.03125 159.628906 243.925781 160.617188 244.773438 161.648438 C 245.621094 162.683594 246.417969 163.753906 247.160156 164.863281 C 247.898438 165.976562 248.585938 167.121094 249.214844 168.296875 C 249.84375 169.476562 250.414062 170.679688 250.925781 171.914062 C 251.4375 173.148438 251.886719 174.40625 252.273438 175.683594 C 252.660156 176.960938 252.984375 178.253906 253.246094 179.566406 C 253.507812 180.875 253.703125 182.195312 253.832031 183.523438 C 253.964844 184.855469 254.03125 186.1875 254.03125 187.523438 Z M 254.03125 187.523438 " fill-opacity="1" fill-rule="nonzero"/><g clip-path="url(#804035b398)"><path fill="#ffffff" d="M 286.722656 284.078125 C 290.191406 287.546875 289.84375 293.292969 285.765625 296.023438 C 265.027344 309.914062 240.085938 318.019531 213.25 318.019531 C 186.414062 318.019531 161.472656 309.914062 140.734375 296.023438 C 136.65625 293.292969 136.308594 287.546875 139.777344 284.078125 L 169.574219 254.273438 C 172.265625 251.582031 176.445312 251.15625 179.832031 252.890625 C 189.855469 258.027344 201.214844 260.925781 213.25 260.925781 C 225.285156 260.925781 236.644531 258.027344 246.664062 252.890625 C 250.054688 251.15625 254.234375 251.582031 256.925781 254.273438 Z M 286.722656 284.078125 " fill-opacity="1" fill-rule="nonzero"/></g><g clip-path="url(#de646e62bc)"><path fill="#ffffff" d="M 285.773438 79.019531 C 289.847656 81.75 290.195312 87.492188 286.726562 90.964844 L 256.933594 120.765625 C 254.238281 123.460938 250.0625 123.886719 246.671875 122.148438 C 236.648438 117.011719 225.292969 114.117188 213.257812 114.117188 C 172.726562 114.117188 139.867188 146.980469 139.867188 187.523438 C 139.867188 199.558594 142.765625 210.921875 147.898438 220.945312 C 149.632812 224.335938 149.210938 228.515625 146.515625 231.207031 L 116.71875 261.011719 C 113.25 264.480469 107.507812 264.128906 104.777344 260.054688 C 90.886719 239.3125 82.785156 214.363281 82.785156 187.523438 C 82.785156 115.449219 141.199219 57.023438 213.257812 57.023438 C 240.09375 57.023438 265.035156 65.125 285.773438 79.019531 Z M 285.773438 79.019531 " fill-opacity="1" fill-rule="nonzero"/></g></svg>