<svg xmlns="http://www.w3.org/2000/svg" xmlns:xlink="http://www.w3.org/1999/xlink" width="500" zoomAndPan="magnify" viewBox="0 0 375 374.999991" height="500" preserveAspectRatio="xMidYMid meet" version="1.0"><path fill="#ffffff" d="M 187.832031 87.210938 C 145.488281 87.210938 118.800781 108.511719 108.277344 150.855469 C 124.1875 129.554688 142.664062 121.597656 163.964844 126.988281 C 176.027344 130.066406 184.753906 138.792969 194.246094 148.542969 C 209.902344 164.453125 227.867188 182.675781 267.386719 182.675781 C 309.730469 182.675781 336.417969 161.375 346.941406 119.03125 C 331.027344 140.332031 312.550781 148.289062 291.253906 142.898438 C 279.191406 139.820312 270.464844 131.09375 260.96875 121.339844 C 245.316406 105.429688 227.351562 87.210938 187.832031 87.210938 Z M 108.277344 182.417969 C 65.933594 182.417969 39.246094 203.71875 28.722656 246.0625 C 44.632812 224.761719 63.109375 216.808594 84.410156 222.195312 C 96.472656 225.273438 105.199219 234 114.691406 243.753906 C 130.347656 259.664062 148.3125 277.882812 187.832031 277.882812 C 230.175781 277.882812 256.863281 256.582031 267.386719 214.242188 C 251.476562 235.539062 232.996094 243.496094 211.699219 238.105469 C 199.636719 235.027344 190.910156 226.300781 181.414062 216.550781 C 165.761719 200.894531 147.796875 182.417969 108.277344 182.417969 Z M 108.277344 182.417969 " fill-opacity="1" fill-rule="evenodd"/></svg>