<svg xmlns="http://www.w3.org/2000/svg" xmlns:xlink="http://www.w3.org/1999/xlink" width="500" zoomAndPan="magnify" viewBox="0 0 375 374.999991" height="500" preserveAspectRatio="xMidYMid meet" version="1.0"><defs><clipPath id="53e72d562e"><path d="M 47 61 L 329.621094 61 L 329.621094 306 L 47 306 Z M 47 61 " clip-rule="nonzero"/></clipPath></defs><g clip-path="url(#53e72d562e)"><path fill="#ffffff" d="M 586.597656 122.421875 C 544.425781 122.421875 514.019531 149.925781 514.019531 191.179688 C 514.019531 232.4375 548.246094 259.941406 590.417969 259.941406 C 615.894531 259.941406 638.355469 249.855469 652.261719 232.855469 L 623.039062 215.972656 C 615.324219 224.414062 603.597656 229.34375 590.417969 229.34375 C 572.121094 229.34375 556.570312 219.792969 550.804688 204.511719 L 657.839844 204.511719 C 658.679688 200.234375 659.175781 195.804688 659.175781 191.144531 C 659.175781 149.925781 628.769531 122.421875 586.597656 122.421875 Z M 550.460938 177.8125 C 555.234375 162.570312 568.300781 152.980469 586.558594 152.980469 C 604.855469 152.980469 617.921875 162.570312 622.65625 177.8125 Z M 997.929688 122.421875 C 955.757812 122.421875 925.351562 149.925781 925.351562 191.179688 C 925.351562 232.4375 959.578125 259.941406 1001.75 259.941406 C 1027.226562 259.941406 1049.691406 249.855469 1063.59375 232.855469 L 1034.371094 215.972656 C 1026.65625 224.414062 1014.929688 229.34375 1001.75 229.34375 C 983.453125 229.34375 967.90625 219.792969 962.136719 204.511719 L 1069.171875 204.511719 C 1070.011719 200.234375 1070.507812 195.804688 1070.507812 191.144531 C 1070.507812 149.925781 1040.101562 122.421875 997.929688 122.421875 Z M 961.832031 177.8125 C 966.605469 162.570312 979.671875 152.980469 997.929688 152.980469 C 1016.226562 152.980469 1029.292969 162.570312 1034.027344 177.8125 Z M 812.738281 191.179688 C 812.738281 214.101562 827.710938 229.378906 850.9375 229.378906 C 866.675781 229.378906 878.480469 222.238281 884.554688 210.585938 L 913.890625 227.507812 C 901.742188 247.753906 878.976562 259.941406 850.9375 259.941406 C 808.726562 259.941406 778.359375 232.4375 778.359375 191.179688 C 778.359375 149.925781 808.765625 122.421875 850.9375 122.421875 C 878.976562 122.421875 901.703125 134.609375 913.890625 154.851562 L 884.554688 171.777344 C 878.480469 160.125 866.675781 152.980469 850.9375 152.980469 C 827.75 152.980469 812.738281 168.261719 812.738281 191.179688 Z M 1127.808594 80.402344 L 1127.808594 256.121094 L 1093.429688 256.121094 L 1093.429688 80.402344 Z M 188.976562 61.300781 L 330.125 305.78125 L 47.832031 305.78125 Z M 541.867188 80.402344 L 436.015625 263.761719 L 330.164062 80.402344 L 369.851562 80.402344 L 436.015625 195 L 502.175781 80.402344 Z M 766.898438 126.242188 L 766.898438 163.257812 C 763.078125 162.148438 759.03125 161.386719 754.675781 161.386719 C 732.480469 161.386719 716.476562 176.664062 716.476562 199.585938 L 716.476562 256.121094 L 682.097656 256.121094 L 682.097656 126.242188 L 716.476562 126.242188 L 716.476562 161.386719 C 716.476562 141.980469 739.050781 126.242188 766.898438 126.242188 Z M 766.898438 126.242188 " fill-opacity="1" fill-rule="nonzero"/></g></svg>